<?xml version="1.0" encoding="UTF-8" standalone="no"?>
<!DOCTYPE svg PUBLIC "-//W3C//DTD SVG 1.1//EN"
 "http://www.w3.org/Graphics/SVG/1.1/DTD/svg11.dtd">
<!-- Generated by graphviz version 2.38.0 (20140413.2041)
 -->
<!-- Title: %3 Pages: 1 -->
<svg width="629pt" height="292pt"
 viewBox="0.00 0.00 628.64 292.17" xmlns="http://www.w3.org/2000/svg" xmlns:xlink="http://www.w3.org/1999/xlink">
<g id="graph0" class="graph" transform="scale(1 1) rotate(0) translate(4 288.174)">
<title>%3</title>
<polygon fill="white" stroke="none" points="-4,4 -4,-288.174 624.636,-288.174 624.636,4 -4,4"/>
<g id="clust1" class="cluster"><title>cluster_0</title>
<polygon fill="none" stroke="black" points="104.165,-23.1742 104.165,-179.174 455.311,-179.174 455.311,-23.1742 104.165,-23.1742"/>
<text text-anchor="middle" x="279.738" y="-163.974" font-family="Times,serif" font-size="14.00">States</text>
</g>
<g id="clust2" class="cluster"><title>cluster_1</title>
<polygon fill="none" stroke="black" points="499.811,-94.1742 499.811,-276.174 612.636,-276.174 612.636,-94.1742 499.811,-94.1742"/>
<text text-anchor="middle" x="556.224" y="-260.974" font-family="Times,serif" font-size="14.00">Symptoms</text>
</g>
<!-- start -->
<g id="node1" class="node"><title>start</title>
<ellipse fill="none" stroke="black" cx="29.3324" cy="-49.1742" rx="25.1885" ry="25.1885"/>
<ellipse fill="none" stroke="black" cx="29.3324" cy="-49.1742" rx="29.1658" ry="29.1658"/>
<text text-anchor="middle" x="29.3324" y="-44.9742" font-family="Times,serif" font-size="14.00">start</text>
</g>
<!-- healthy -->
<g id="node2" class="node"><title>healthy</title>
<ellipse fill="none" stroke="black" cx="148.301" cy="-99.1742" rx="36.2732" ry="18"/>
<text text-anchor="middle" x="148.301" y="-94.9742" font-family="Times,serif" font-size="14.00">healthy</text>
</g>
<!-- start&#45;&gt;healthy -->
<g id="edge1" class="edge"><title>start&#45;&gt;healthy</title>
<path fill="none" stroke="black" d="M56.5825,-60.3952C72.609,-67.2459 93.332,-76.1043 110.925,-83.6247"/>
<polygon fill="black" stroke="black" points="109.756,-86.9315 120.327,-87.6438 112.508,-80.4949 109.756,-86.9315"/>
<text text-anchor="middle" x="85.4149" y="-78.9742" font-family="Times,serif" font-size="14.00">0.5</text>
</g>
<!-- incubating -->
<g id="node3" class="node"><title>incubating</title>
<ellipse fill="none" stroke="black" cx="285.374" cy="-99.1742" rx="47.3736" ry="18"/>
<text text-anchor="middle" x="285.374" y="-94.9742" font-family="Times,serif" font-size="14.00">incubating</text>
</g>
<!-- start&#45;&gt;incubating -->
<g id="edge2" class="edge"><title>start&#45;&gt;incubating</title>
<path fill="none" stroke="black" d="M58.8458,-48.0513C90.0781,-47.463 141.451,-48.3887 184.438,-58.1742 205.926,-63.0659 228.745,-72.1062 247.145,-80.4555"/>
<polygon fill="black" stroke="black" points="245.791,-83.6857 256.334,-84.733 248.745,-77.3396 245.791,-83.6857"/>
<text text-anchor="middle" x="148.301" y="-60.9742" font-family="Times,serif" font-size="14.00">0.4</text>
</g>
<!-- ill -->
<g id="node4" class="node"><title>ill</title>
<ellipse fill="none" stroke="black" cx="420.311" cy="-49.1742" rx="27" ry="18"/>
<text text-anchor="middle" x="420.311" y="-44.9742" font-family="Times,serif" font-size="14.00">ill</text>
</g>
<!-- start&#45;&gt;ill -->
<g id="edge3" class="edge"><title>start&#45;&gt;ill</title>
<path fill="none" stroke="black" d="M58.7182,-45.6512C64.6397,-45.0455 70.8491,-44.5052 76.6649,-44.1742 209.183,-36.6324 242.883,-34.1866 375.311,-43.1742 378.03,-43.3587 380.836,-43.6066 383.655,-43.8969"/>
<polygon fill="black" stroke="black" points="383.436,-47.3954 393.778,-45.0964 384.259,-40.444 383.436,-47.3954"/>
<text text-anchor="middle" x="211.188" y="-40.9742" font-family="Times,serif" font-size="14.00">0.1</text>
</g>
<!-- healthy&#45;&gt;healthy -->
<g id="edge4" class="edge"><title>healthy&#45;&gt;healthy</title>
<path fill="none" stroke="black" d="M137.232,-116.584C135.166,-126.262 138.856,-135.174 148.301,-135.174 154.205,-135.174 157.859,-131.693 159.266,-126.719"/>
<polygon fill="black" stroke="black" points="162.767,-126.619 159.37,-116.584 155.768,-126.548 162.767,-126.619"/>
<text text-anchor="middle" x="148.301" y="-137.974" font-family="Times,serif" font-size="14.00">0.9</text>
</g>
<!-- healthy&#45;&gt;incubating -->
<g id="edge5" class="edge"><title>healthy&#45;&gt;incubating</title>
<path fill="none" stroke="black" d="M184.151,-96.1745C190.242,-95.7578 196.521,-95.3966 202.438,-95.1742 210.928,-94.8551 219.911,-94.9019 228.695,-95.1615"/>
<polygon fill="black" stroke="black" points="228.748,-98.666 238.875,-95.5547 229.018,-91.6712 228.748,-98.666"/>
<text text-anchor="middle" x="211.188" y="-97.9742" font-family="Times,serif" font-size="14.00">0.1</text>
</g>
<!-- normal -->
<g id="node5" class="node"><title>normal</title>
<ellipse fill="none" stroke="black" cx="556.224" cy="-228.174" rx="35.3129" ry="18"/>
<text text-anchor="middle" x="556.224" y="-223.974" font-family="Times,serif" font-size="14.00">normal</text>
</g>
<!-- healthy&#45;&gt;normal -->
<g id="edge11" class="edge"><title>healthy&#45;&gt;normal</title>
<path fill="none" stroke="black" d="M157.683,-116.856C166.798,-134.703 182.735,-162.26 202.438,-181.174 270.233,-246.259 301.399,-252.564 393.311,-272.174 435.438,-281.162 449.702,-278.881 489.811,-263.174 501.313,-258.67 513.378,-252.628 523.969,-246.833"/>
<polygon fill="black" stroke="black" points="525.84,-249.797 532.846,-241.849 522.413,-243.693 525.84,-249.797"/>
<text text-anchor="middle" x="363.061" y="-271.974" font-family="Times,serif" font-size="14.00">0.95</text>
</g>
<!-- low_fever -->
<g id="node6" class="node"><title>low_fever</title>
<ellipse fill="none" stroke="black" cx="556.224" cy="-120.174" rx="45.9114" ry="18"/>
<text text-anchor="middle" x="556.224" y="-115.974" font-family="Times,serif" font-size="14.00">low_fever</text>
</g>
<!-- healthy&#45;&gt;low_fever -->
<g id="edge12" class="edge"><title>healthy&#45;&gt;low_fever</title>
<path fill="none" stroke="black" d="M166.352,-115.051C183.114,-129.486 210.157,-149.774 237.938,-158.174 335.62,-187.712 364.434,-141.606 465.311,-126.174 476.554,-124.454 488.663,-123.227 500.24,-122.352"/>
<polygon fill="black" stroke="black" points="500.502,-125.842 510.24,-121.67 500.025,-118.859 500.502,-125.842"/>
<text text-anchor="middle" x="363.061" y="-161.974" font-family="Times,serif" font-size="14.00">0.04</text>
</g>
<!-- high_fever -->
<g id="node7" class="node"><title>high_fever</title>
<ellipse fill="none" stroke="black" cx="556.224" cy="-174.174" rx="48.3255" ry="18"/>
<text text-anchor="middle" x="556.224" y="-169.974" font-family="Times,serif" font-size="14.00">high_fever</text>
</g>
<!-- healthy&#45;&gt;high_fever -->
<g id="edge13" class="edge"><title>healthy&#45;&gt;high_fever</title>
<path fill="none" stroke="black" d="M160.727,-116.252C170.509,-129.84 185.645,-148.597 202.438,-161.174 216.289,-171.549 221.241,-172.621 237.938,-177.174 331.429,-202.668 358.878,-203.731 455.311,-194.174 471.629,-192.557 489.229,-189.489 505.044,-186.232"/>
<polygon fill="black" stroke="black" points="506.097,-189.587 515.147,-184.079 504.637,-182.74 506.097,-189.587"/>
<text text-anchor="middle" x="363.061" y="-202.974" font-family="Times,serif" font-size="14.00">0.01</text>
</g>
<!-- incubating&#45;&gt;healthy -->
<g id="edge6" class="edge"><title>incubating&#45;&gt;healthy</title>
<path fill="none" stroke="black" d="M243.161,-107.679C230.149,-109.431 215.707,-110.412 202.438,-109.174 198.968,-108.851 195.387,-108.41 191.8,-107.894"/>
<polygon fill="black" stroke="black" points="192.193,-104.413 181.763,-106.273 191.077,-111.323 192.193,-104.413"/>
<text text-anchor="middle" x="211.188" y="-112.974" font-family="Times,serif" font-size="14.00">0.1</text>
</g>
<!-- incubating&#45;&gt;incubating -->
<g id="edge7" class="edge"><title>incubating&#45;&gt;incubating</title>
<path fill="none" stroke="black" d="M272.163,-116.584C269.697,-126.262 274.101,-135.174 285.374,-135.174 292.42,-135.174 296.783,-131.693 298.461,-126.719"/>
<polygon fill="black" stroke="black" points="301.963,-126.626 298.585,-116.584 294.963,-126.541 301.963,-126.626"/>
<text text-anchor="middle" x="285.374" y="-137.974" font-family="Times,serif" font-size="14.00">0.6</text>
</g>
<!-- incubating&#45;&gt;ill -->
<g id="edge8" class="edge"><title>incubating&#45;&gt;ill</title>
<path fill="none" stroke="black" d="M319.577,-86.6861C340.197,-78.9305 366.572,-69.0105 387.019,-61.3199"/>
<polygon fill="black" stroke="black" points="388.402,-64.5393 396.529,-57.7428 385.937,-57.9874 388.402,-64.5393"/>
<text text-anchor="middle" x="363.061" y="-76.9742" font-family="Times,serif" font-size="14.00">0.3</text>
</g>
<!-- incubating&#45;&gt;normal -->
<g id="edge14" class="edge"><title>incubating&#45;&gt;normal</title>
<path fill="none" stroke="black" d="M288.988,-117.531C294.399,-147.823 309.945,-207.48 350.811,-233.174 401.136,-264.815 473.087,-252.922 516.839,-240.91"/>
<polygon fill="black" stroke="black" points="517.885,-244.252 526.527,-238.122 515.949,-237.525 517.885,-244.252"/>
<text text-anchor="middle" x="420.311" y="-256.974" font-family="Times,serif" font-size="14.00">0.6</text>
</g>
<!-- incubating&#45;&gt;low_fever -->
<g id="edge15" class="edge"><title>incubating&#45;&gt;low_fever</title>
<path fill="none" stroke="black" d="M310.563,-83.6452C317.899,-78.6364 325.853,-72.8947 332.811,-67.1742 361.823,-43.3217 358.522,-22.329 393.311,-8.17419 418.835,2.21089 430.164,3.09176 455.311,-8.17419 494.195,-25.594 524.168,-66.4543 540.75,-93.7038"/>
<polygon fill="black" stroke="black" points="537.763,-95.529 545.854,-102.37 543.795,-91.9767 537.763,-95.529"/>
<text text-anchor="middle" x="420.311" y="-10.9742" font-family="Times,serif" font-size="14.00">0.35</text>
</g>
<!-- incubating&#45;&gt;high_fever -->
<g id="edge16" class="edge"><title>incubating&#45;&gt;high_fever</title>
<path fill="none" stroke="black" d="M301.217,-116.179C313.234,-128.704 331.317,-144.934 350.811,-153.174 397.712,-173 455.857,-177.247 498.129,-177.123"/>
<polygon fill="black" stroke="black" points="498.286,-180.621 508.246,-177.009 498.207,-173.622 498.286,-180.621"/>
<text text-anchor="middle" x="420.311" y="-178.974" font-family="Times,serif" font-size="14.00">0.05</text>
</g>
<!-- ill&#45;&gt;healthy -->
<g id="edge9" class="edge"><title>ill&#45;&gt;healthy</title>
<path fill="none" stroke="black" d="M393.333,-47.39C357.711,-45.6333 291.969,-44.8705 237.938,-58.1742 218.395,-62.9859 197.919,-72.1505 181.576,-80.5967"/>
<polygon fill="black" stroke="black" points="179.65,-77.6573 172.47,-85.4484 182.941,-83.8352 179.65,-77.6573"/>
<text text-anchor="middle" x="285.374" y="-60.9742" font-family="Times,serif" font-size="14.00">0.2</text>
</g>
<!-- ill&#45;&gt;ill -->
<g id="edge10" class="edge"><title>ill&#45;&gt;ill</title>
<path fill="none" stroke="black" d="M410.388,-66.2115C408.363,-76.0321 411.67,-85.1742 420.311,-85.1742 425.711,-85.1742 429.029,-81.6031 430.263,-76.5271"/>
<polygon fill="black" stroke="black" points="433.762,-76.2018 430.234,-66.2115 426.762,-76.2212 433.762,-76.2018"/>
<text text-anchor="middle" x="420.311" y="-87.9742" font-family="Times,serif" font-size="14.00">0.8</text>
</g>
<!-- ill&#45;&gt;normal -->
<g id="edge17" class="edge"><title>ill&#45;&gt;normal</title>
<path fill="none" stroke="black" d="M425.455,-66.9503C433.822,-98.8084 455.803,-165.615 499.811,-201.174 505.348,-205.648 511.748,-209.62 518.19,-213.048"/>
<polygon fill="black" stroke="black" points="517.045,-216.386 527.561,-217.678 520.146,-210.111 517.045,-216.386"/>
<text text-anchor="middle" x="477.561" y="-194.974" font-family="Times,serif" font-size="14.00">0.05</text>
</g>
<!-- ill&#45;&gt;low_fever -->
<g id="edge18" class="edge"><title>ill&#45;&gt;low_fever</title>
<path fill="none" stroke="black" d="M442.384,-59.7307C455.975,-66.5914 474.002,-75.7878 489.811,-84.1742 499.617,-89.3761 510.182,-95.126 519.901,-100.475"/>
<polygon fill="black" stroke="black" points="518.462,-103.679 528.907,-105.45 521.846,-97.5514 518.462,-103.679"/>
<text text-anchor="middle" x="477.561" y="-86.9742" font-family="Times,serif" font-size="14.00">0.2</text>
</g>
<!-- ill&#45;&gt;high_fever -->
<g id="edge19" class="edge"><title>ill&#45;&gt;high_fever</title>
<path fill="none" stroke="black" d="M431.426,-65.9725C444.861,-87.1492 470.355,-123.625 499.811,-147.174 503.937,-150.473 508.532,-153.503 513.261,-156.246"/>
<polygon fill="black" stroke="black" points="511.967,-159.523 522.435,-161.161 515.273,-153.353 511.967,-159.523"/>
<text text-anchor="middle" x="477.561" y="-141.974" font-family="Times,serif" font-size="14.00">0.75</text>
</g>
</g>
</svg>
