<?xml version="1.0" encoding="UTF-8" standalone="no"?>
<!DOCTYPE svg PUBLIC "-//W3C//DTD SVG 1.1//EN"
 "http://www.w3.org/Graphics/SVG/1.1/DTD/svg11.dtd">
<!-- Generated by graphviz version 2.38.0 (20140413.2041)
 -->
<!-- Title: %3 Pages: 1 -->
<svg width="442pt" height="269pt"
 viewBox="0.00 0.00 442.29 269.33" xmlns="http://www.w3.org/2000/svg" xmlns:xlink="http://www.w3.org/1999/xlink">
<g id="graph0" class="graph" transform="scale(1 1) rotate(0) translate(4 265.332)">
<title>%3</title>
<polygon fill="white" stroke="none" points="-4,4 -4,-265.332 438.287,-265.332 438.287,4 -4,4"/>
<g id="clust1" class="cluster"><title>cluster_0</title>
<polygon fill="none" stroke="black" points="104.165,-32.3324 104.165,-139.332 302.475,-139.332 302.475,-32.3324 104.165,-32.3324"/>
<text text-anchor="middle" x="203.32" y="-124.132" font-family="Times,serif" font-size="14.00">States</text>
</g>
<g id="clust2" class="cluster"><title>cluster_1</title>
<polygon fill="none" stroke="black" points="339.975,-71.3324 339.975,-253.332 426.287,-253.332 426.287,-71.3324 339.975,-71.3324"/>
<text text-anchor="middle" x="383.131" y="-238.132" font-family="Times,serif" font-size="14.00">Symptoms</text>
</g>
<!-- start -->
<g id="node1" class="node"><title>start</title>
<ellipse fill="none" stroke="black" cx="29.3324" cy="-29.3324" rx="25.1885" ry="25.1885"/>
<ellipse fill="none" stroke="black" cx="29.3324" cy="-29.3324" rx="29.1658" ry="29.1658"/>
<text text-anchor="middle" x="29.3324" y="-25.1324" font-family="Times,serif" font-size="14.00">start</text>
</g>
<!-- healthy -->
<g id="node2" class="node"><title>healthy</title>
<ellipse fill="none" stroke="black" cx="148.301" cy="-59.3324" rx="36.2732" ry="18"/>
<text text-anchor="middle" x="148.301" y="-55.1324" font-family="Times,serif" font-size="14.00">healthy</text>
</g>
<!-- start&#45;&gt;healthy -->
<g id="edge1" class="edge"><title>start&#45;&gt;healthy</title>
<path fill="none" stroke="black" d="M58.0524,-36.442C72.2394,-40.0807 89.8028,-44.5853 105.586,-48.6334"/>
<polygon fill="black" stroke="black" points="105.092,-52.1198 115.648,-51.214 106.831,-45.3393 105.092,-52.1198"/>
<text text-anchor="middle" x="85.4149" y="-48.1324" font-family="Times,serif" font-size="14.00">0.6</text>
</g>
<!-- fever -->
<g id="node3" class="node"><title>fever</title>
<ellipse fill="none" stroke="black" cx="266.206" cy="-58.3324" rx="28.0394" ry="18"/>
<text text-anchor="middle" x="266.206" y="-54.1324" font-family="Times,serif" font-size="14.00">fever</text>
</g>
<!-- start&#45;&gt;fever -->
<g id="edge2" class="edge"><title>start&#45;&gt;fever</title>
<path fill="none" stroke="black" d="M58.0055,-22.4473C89.1578,-15.8229 141.084,-8.1853 184.438,-18.3324 202.985,-22.6736 222.157,-31.931 237.165,-40.4475"/>
<polygon fill="black" stroke="black" points="235.535,-43.5494 245.929,-45.6039 239.085,-37.5162 235.535,-43.5494"/>
<text text-anchor="middle" x="148.301" y="-21.1324" font-family="Times,serif" font-size="14.00">0.4</text>
</g>
<!-- healthy&#45;&gt;healthy -->
<g id="edge3" class="edge"><title>healthy&#45;&gt;healthy</title>
<path fill="none" stroke="black" d="M137.232,-76.7423C135.166,-86.4203 138.856,-95.3324 148.301,-95.3324 154.205,-95.3324 157.859,-91.8511 159.266,-86.8774"/>
<polygon fill="black" stroke="black" points="162.767,-86.7777 159.37,-76.7423 155.768,-86.7059 162.767,-86.7777"/>
<text text-anchor="middle" x="148.301" y="-98.1324" font-family="Times,serif" font-size="14.00">0.7</text>
</g>
<!-- healthy&#45;&gt;fever -->
<g id="edge4" class="edge"><title>healthy&#45;&gt;fever</title>
<path fill="none" stroke="black" d="M184.706,-59.027C198.287,-58.9098 213.825,-58.7757 227.605,-58.6568"/>
<polygon fill="black" stroke="black" points="227.769,-62.1557 237.738,-58.5694 227.709,-55.1559 227.769,-62.1557"/>
<text text-anchor="middle" x="211.188" y="-62.1324" font-family="Times,serif" font-size="14.00">0.3</text>
</g>
<!-- normal -->
<g id="node4" class="node"><title>normal</title>
<ellipse fill="none" stroke="black" cx="383.131" cy="-151.332" rx="35.3129" ry="18"/>
<text text-anchor="middle" x="383.131" y="-147.132" font-family="Times,serif" font-size="14.00">normal</text>
</g>
<!-- healthy&#45;&gt;normal -->
<g id="edge7" class="edge"><title>healthy&#45;&gt;normal</title>
<path fill="none" stroke="black" d="M161.931,-76.2656C172.05,-89.1905 187.054,-106.988 202.438,-120.332 244.516,-156.833 258.243,-167.613 312.475,-180.332 326.842,-183.702 342.054,-178.49 354.584,-171.597"/>
<polygon fill="black" stroke="black" points="356.45,-174.558 363.184,-166.379 352.819,-168.574 356.45,-174.558"/>
<text text-anchor="middle" x="266.206" y="-181.132" font-family="Times,serif" font-size="14.00">0.5</text>
</g>
<!-- cold -->
<g id="node5" class="node"><title>cold</title>
<ellipse fill="none" stroke="black" cx="383.131" cy="-97.3324" rx="27" ry="18"/>
<text text-anchor="middle" x="383.131" y="-93.1324" font-family="Times,serif" font-size="14.00">cold</text>
</g>
<!-- healthy&#45;&gt;cold -->
<g id="edge8" class="edge"><title>healthy&#45;&gt;cold</title>
<path fill="none" stroke="black" d="M166.75,-75.1326C183.588,-89.248 210.5,-108.952 237.938,-117.332 277.061,-129.282 289.814,-126.114 329.975,-118.332 337.122,-116.948 344.531,-114.587 351.443,-111.938"/>
<polygon fill="black" stroke="black" points="353.226,-114.988 361.126,-107.928 350.548,-108.52 353.226,-114.988"/>
<text text-anchor="middle" x="266.206" y="-128.132" font-family="Times,serif" font-size="14.00">0.4</text>
</g>
<!-- dizzy -->
<g id="node6" class="node"><title>dizzy</title>
<ellipse fill="none" stroke="black" cx="383.131" cy="-205.332" rx="29.0172" ry="18"/>
<text text-anchor="middle" x="383.131" y="-201.132" font-family="Times,serif" font-size="14.00">dizzy</text>
</g>
<!-- healthy&#45;&gt;dizzy -->
<g id="edge9" class="edge"><title>healthy&#45;&gt;dizzy</title>
<path fill="none" stroke="black" d="M154.821,-77.0507C165.385,-107.594 191.628,-169.461 237.938,-196.332 270.249,-215.082 313.771,-215.061 344.521,-211.764"/>
<polygon fill="black" stroke="black" points="345.333,-215.191 354.826,-210.487 344.472,-208.244 345.333,-215.191"/>
<text text-anchor="middle" x="266.206" y="-216.132" font-family="Times,serif" font-size="14.00">0.1</text>
</g>
<!-- fever&#45;&gt;healthy -->
<g id="edge5" class="edge"><title>fever&#45;&gt;healthy</title>
<path fill="none" stroke="black" d="M241.6,-67.7341C234.727,-70.0366 227.13,-72.1718 219.938,-73.3324 209.57,-75.0054 198.401,-74.0731 188.073,-72.0652"/>
<polygon fill="black" stroke="black" points="188.617,-68.5988 178.086,-69.7554 187.04,-75.4187 188.617,-68.5988"/>
<text text-anchor="middle" x="211.188" y="-77.1324" font-family="Times,serif" font-size="14.00">0.4</text>
</g>
<!-- fever&#45;&gt;fever -->
<g id="edge6" class="edge"><title>fever&#45;&gt;fever</title>
<path fill="none" stroke="black" d="M256.637,-75.3697C254.685,-85.1903 257.874,-94.3324 266.206,-94.3324 271.414,-94.3324 274.613,-90.7613 275.803,-85.6854"/>
<polygon fill="black" stroke="black" points="279.302,-85.3604 275.775,-75.3697 272.302,-85.3791 279.302,-85.3604"/>
<text text-anchor="middle" x="266.206" y="-97.1324" font-family="Times,serif" font-size="14.00">0.6</text>
</g>
<!-- fever&#45;&gt;normal -->
<g id="edge10" class="edge"><title>fever&#45;&gt;normal</title>
<path fill="none" stroke="black" d="M282.17,-73.2755C296.445,-87.1922 318.845,-108.164 339.975,-124.332 343.392,-126.947 347.063,-129.56 350.763,-132.074"/>
<polygon fill="black" stroke="black" points="349.064,-135.145 359.342,-137.715 352.91,-129.296 349.064,-135.145"/>
<text text-anchor="middle" x="321.225" y="-119.132" font-family="Times,serif" font-size="14.00">0.1</text>
</g>
<!-- fever&#45;&gt;cold -->
<g id="edge11" class="edge"><title>fever&#45;&gt;cold</title>
<path fill="none" stroke="black" d="M294.682,-57.5933C305.883,-58.0371 318.8,-59.5223 329.975,-63.3324 339.442,-66.5601 348.879,-71.8965 357.071,-77.3955"/>
<polygon fill="black" stroke="black" points="355.238,-80.3867 365.414,-83.3342 359.297,-74.6838 355.238,-80.3867"/>
<text text-anchor="middle" x="321.225" y="-66.1324" font-family="Times,serif" font-size="14.00">0.3</text>
</g>
<!-- fever&#45;&gt;dizzy -->
<g id="edge12" class="edge"><title>fever&#45;&gt;dizzy</title>
<path fill="none" stroke="black" d="M276.756,-75.0392C294.546,-106.014 331.708,-169.974 339.975,-178.332 343.459,-181.855 347.481,-185.147 351.629,-188.137"/>
<polygon fill="black" stroke="black" points="349.923,-191.206 360.189,-193.827 353.799,-185.377 349.923,-191.206"/>
<text text-anchor="middle" x="321.225" y="-167.132" font-family="Times,serif" font-size="14.00">0.6</text>
</g>
</g>
</svg>
